<svg width="19" height="14" viewBox="0 0 19 14" fill="none" xmlns="http://www.w3.org/2000/svg">
<path d="M11.5 0.34198C11.244 0.34198 10.988 0.44198 10.793 0.63698L10.707 0.72298C10.6141 0.815768 10.5403 0.925972 10.49 1.04729C10.4397 1.1686 10.4138 1.29865 10.4138 1.42998C10.4138 1.56131 10.4397 1.69136 10.49 1.81267C10.5403 1.93399 10.6141 2.04419 10.707 2.13698L14.57 5.99998H1.5C1.23478 5.99998 0.98043 6.10534 0.792893 6.29287C0.605357 6.48041 0.5 6.73476 0.5 6.99998C0.5 7.2652 0.605357 7.51955 0.792893 7.70709C0.98043 7.89462 1.23478 7.99998 1.5 7.99998H14.57L10.707 11.863C10.6141 11.9558 10.5403 12.066 10.49 12.1873C10.4397 12.3086 10.4138 12.4386 10.4138 12.57C10.4138 12.7013 10.4397 12.8314 10.49 12.9527C10.5403 13.074 10.6141 13.1842 10.707 13.277L10.793 13.363C10.8858 13.4559 10.996 13.5297 11.1173 13.58C11.2386 13.6303 11.3687 13.6562 11.5 13.6562C11.6313 13.6562 11.7614 13.6303 11.8827 13.58C12.004 13.5297 12.1142 13.4559 12.207 13.363L17.863 7.70698C17.9559 7.61419 18.0297 7.50399 18.08 7.38267C18.1303 7.26136 18.1562 7.13131 18.1562 6.99998C18.1562 6.86865 18.1303 6.7386 18.08 6.61729C18.0297 6.49597 17.9559 6.38577 17.863 6.29298L12.207 0.63698C12.1144 0.543665 12.0043 0.469566 11.8829 0.418941C11.7616 0.368316 11.6315 0.342161 11.5 0.34198Z" fill="#909090"/>
</svg>
