<svg width="115" height="24" viewBox="0 0 115 24" fill="none" xmlns="http://www.w3.org/2000/svg">
<rect x="0.5" y="0.5" width="113.62" height="23" rx="5.5" fill="white" fill-opacity="0.1"/>
<rect x="0.5" y="0.5" width="113.62" height="23" rx="5.5" stroke="#252525"/>
<path opacity="0.2" d="M20.5 12C20.5 12.7819 19.3863 13.3719 19.0825 14.1056C18.79 14.8131 19.1712 16.0212 18.5962 16.5962C18.0212 17.1712 16.8131 16.79 16.1056 17.0825C15.375 17.3863 14.7812 18.5 14 18.5C13.2188 18.5 12.625 17.3863 11.8944 17.0825C11.1869 16.79 9.97875 17.1712 9.40375 16.5962C8.82875 16.0212 9.21 14.8131 8.9175 14.1056C8.61375 13.375 7.5 12.7812 7.5 12C7.5 11.2188 8.61375 10.625 8.9175 9.89437C9.21 9.1875 8.82875 7.97875 9.40375 7.40375C9.97875 6.82875 11.1875 7.21 11.8944 6.9175C12.6281 6.61375 13.2188 5.5 14 5.5C14.7812 5.5 15.375 6.61375 16.1056 6.9175C16.8131 7.21 18.0212 6.82875 18.5962 7.40375C19.1712 7.97875 18.79 9.18687 19.0825 9.89437C19.3863 10.6281 20.5 11.2188 20.5 12Z" fill="#00F256"/>
<path d="M20.1163 10.4262C19.8806 10.18 19.6369 9.92625 19.545 9.70312C19.46 9.49875 19.455 9.16 19.45 8.83187C19.4406 8.22187 19.4306 7.53062 18.95 7.05C18.4694 6.56937 17.7781 6.55937 17.1681 6.55C16.84 6.545 16.5013 6.54 16.2969 6.455C16.0744 6.36312 15.82 6.11937 15.5737 5.88375C15.1425 5.46937 14.6525 5 14 5C13.3475 5 12.8581 5.46937 12.4262 5.88375C12.18 6.11937 11.9262 6.36312 11.7031 6.455C11.5 6.54 11.16 6.545 10.8319 6.55C10.2219 6.55937 9.53062 6.56937 9.05 7.05C8.56937 7.53062 8.5625 8.22187 8.55 8.83187C8.545 9.16 8.54 9.49875 8.455 9.70312C8.36312 9.92562 8.11937 10.18 7.88375 10.4262C7.46937 10.8575 7 11.3475 7 12C7 12.6525 7.46937 13.1419 7.88375 13.5737C8.11937 13.82 8.36312 14.0737 8.455 14.2969C8.54 14.5013 8.545 14.84 8.55 15.1681C8.55937 15.7781 8.56937 16.4694 9.05 16.95C9.53062 17.4306 10.2219 17.4406 10.8319 17.45C11.16 17.455 11.4988 17.46 11.7031 17.545C11.9256 17.6369 12.18 17.8806 12.4262 18.1163C12.8575 18.5306 13.3475 19 14 19C14.6525 19 15.1419 18.5306 15.5737 18.1163C15.82 17.8806 16.0737 17.6369 16.2969 17.545C16.5013 17.46 16.84 17.455 17.1681 17.45C17.7781 17.4406 18.4694 17.4306 18.95 16.95C19.4306 16.4694 19.4406 15.7781 19.45 15.1681C19.455 14.84 19.46 14.5013 19.545 14.2969C19.6369 14.0744 19.8806 13.82 20.1163 13.5737C20.5306 13.1425 21 12.6525 21 12C21 11.3475 20.5306 10.8581 20.1163 10.4262ZM19.3944 12.8819C19.095 13.1944 18.785 13.5175 18.6206 13.9144C18.4631 14.2956 18.4563 14.7312 18.45 15.1531C18.4437 15.5906 18.4369 16.0487 18.2425 16.2425C18.0481 16.4363 17.5931 16.4437 17.1531 16.45C16.7312 16.4563 16.2956 16.4631 15.9144 16.6206C15.5175 16.785 15.1944 17.095 14.8819 17.3944C14.5694 17.6937 14.25 18 14 18C13.75 18 13.4281 17.6925 13.1181 17.3944C12.8081 17.0962 12.4825 16.785 12.0856 16.6206C11.7044 16.4631 11.2688 16.4563 10.8469 16.45C10.4094 16.4437 9.95125 16.4369 9.7575 16.2425C9.56375 16.0481 9.55625 15.5931 9.55 15.1531C9.54375 14.7312 9.53688 14.2956 9.37937 13.9144C9.215 13.5175 8.905 13.1944 8.60562 12.8819C8.30625 12.5694 8 12.25 8 12C8 11.75 8.3075 11.4281 8.60562 11.1181C8.90375 10.8081 9.215 10.4825 9.37937 10.0856C9.53688 9.70438 9.54375 9.26875 9.55 8.84688C9.55625 8.40938 9.56312 7.95125 9.7575 7.7575C9.95187 7.56375 10.4069 7.55625 10.8469 7.55C11.2688 7.54375 11.7044 7.53688 12.0856 7.37937C12.4825 7.215 12.8056 6.905 13.1181 6.60562C13.4306 6.30625 13.75 6 14 6C14.25 6 14.5719 6.3075 14.8819 6.60562C15.1919 6.90375 15.5175 7.215 15.9144 7.37937C16.2956 7.53688 16.7312 7.54375 17.1531 7.55C17.5906 7.55625 18.0487 7.56312 18.2425 7.7575C18.4363 7.95187 18.4437 8.40688 18.45 8.84688C18.4563 9.26875 18.4631 9.70438 18.6206 10.0856C18.785 10.4825 19.095 10.8056 19.3944 11.1181C19.6937 11.4306 20 11.75 20 12C20 12.25 19.6925 12.5719 19.3944 12.8819ZM16.8538 10.1462C16.9002 10.1927 16.9371 10.2478 16.9623 10.3085C16.9874 10.3692 17.0004 10.4343 17.0004 10.5C17.0004 10.5657 16.9874 10.6308 16.9623 10.6915C16.9371 10.7522 16.9002 10.8073 16.8538 10.8538L13.3538 14.3538C13.3073 14.4002 13.2522 14.4371 13.1915 14.4623C13.1308 14.4874 13.0657 14.5004 13 14.5004C12.9343 14.5004 12.8692 14.4874 12.8085 14.4623C12.7478 14.4371 12.6927 14.4002 12.6462 14.3538L11.1462 12.8538C11.0524 12.7599 10.9997 12.6327 10.9997 12.5C10.9997 12.3673 11.0524 12.2401 11.1462 12.1462C11.2401 12.0524 11.3673 11.9997 11.5 11.9997C11.6327 11.9997 11.7599 12.0524 11.8538 12.1462L13 13.2931L16.1462 10.1462C16.1927 10.0998 16.2478 10.0629 16.3085 10.0377C16.3692 10.0126 16.4343 9.99961 16.5 9.99961C16.5657 9.99961 16.6308 10.0126 16.6915 10.0377C16.7522 10.0629 16.8073 10.0998 16.8538 10.1462Z" fill="#00F256"/>
<path d="M35.1264 10.4513H33.648C33.5912 10.1354 33.4853 9.85743 33.3305 9.61734C33.1757 9.37726 32.9862 9.1735 32.7619 9.00607C32.5376 8.83864 32.2865 8.71228 32.0085 8.62699C31.7336 8.54169 31.4414 8.49905 31.1318 8.49905C30.5727 8.49905 30.072 8.63962 29.6297 8.92078C29.1906 9.20193 28.8431 9.61418 28.5872 10.1575C28.3345 10.7009 28.2082 11.3643 28.2082 12.1477C28.2082 12.9375 28.3345 13.604 28.5872 14.1474C28.8431 14.6907 29.1922 15.1014 29.6345 15.3794C30.0767 15.6574 30.5743 15.7964 31.1271 15.7964C31.4335 15.7964 31.7242 15.7553 31.999 15.6732C32.277 15.5879 32.5281 15.4631 32.7524 15.2989C32.9767 15.1346 33.1663 14.934 33.3211 14.6971C33.479 14.457 33.588 14.1821 33.648 13.8726L35.1264 13.8773C35.0475 14.3543 34.8943 14.7934 34.6668 15.1946C34.4425 15.5927 34.1535 15.937 33.7996 16.2276C33.449 16.5151 33.0478 16.7378 32.5961 16.8958C32.1443 17.0537 31.6515 17.1327 31.1176 17.1327C30.2773 17.1327 29.5286 16.9337 28.8716 16.5356C28.2145 16.1344 27.6964 15.5611 27.3173 14.8155C26.9414 14.07 26.7534 13.1807 26.7534 12.1477C26.7534 11.1116 26.943 10.2223 27.3221 9.47992C27.7011 8.73439 28.2192 8.16261 28.8763 7.76457C29.5334 7.36337 30.2805 7.16277 31.1176 7.16277C31.6326 7.16277 32.1127 7.23701 32.5581 7.38549C33.0067 7.5308 33.4095 7.74562 33.7665 8.02993C34.1235 8.31108 34.4188 8.65542 34.6526 9.06293C34.8864 9.46729 35.0443 9.93009 35.1264 10.4513ZM45.3084 12.1477C45.3084 13.1839 45.1189 14.0747 44.7398 14.8203C44.3607 15.5626 43.841 16.1344 43.1808 16.5356C42.5237 16.9337 41.7766 17.1327 40.9395 17.1327C40.0992 17.1327 39.3489 16.9337 38.6886 16.5356C38.0316 16.1344 37.5135 15.5611 37.1344 14.8155C36.7553 14.07 36.5658 13.1807 36.5658 12.1477C36.5658 11.1116 36.7553 10.2223 37.1344 9.47992C37.5135 8.73439 38.0316 8.16261 38.6886 7.76457C39.3489 7.36337 40.0992 7.16277 40.9395 7.16277C41.7766 7.16277 42.5237 7.36337 43.1808 7.76457C43.841 8.16261 44.3607 8.73439 44.7398 9.47992C45.1189 10.2223 45.3084 11.1116 45.3084 12.1477ZM43.8584 12.1477C43.8584 11.358 43.7305 10.693 43.4746 10.1528C43.2219 9.60945 42.8744 9.19877 42.4321 8.92078C41.993 8.63962 41.4954 8.49905 40.9395 8.49905C40.3803 8.49905 39.8812 8.63962 39.4421 8.92078C39.003 9.19877 38.6555 9.60945 38.3996 10.1528C38.1469 10.693 38.0205 11.358 38.0205 12.1477C38.0205 12.9375 38.1469 13.604 38.3996 14.1474C38.6555 14.6876 39.003 15.0983 39.4421 15.3794C39.8812 15.6574 40.3803 15.7964 40.9395 15.7964C41.4954 15.7964 41.993 15.6574 42.4321 15.3794C42.8744 15.0983 43.2219 14.6876 43.4746 14.1474C43.7305 13.604 43.8584 12.9375 43.8584 12.1477ZM47.1339 7.29545H48.9109L52.0004 14.8392H52.1141L55.2037 7.29545H56.9806V17H55.5875V9.97747H55.4975L52.6354 16.9858H51.4792L48.6171 9.97273H48.5271V17H47.1339V7.29545ZM59.1094 17V7.29545H62.5686C63.3236 7.29545 63.9491 7.43287 64.445 7.70771C64.941 7.98254 65.3122 8.35847 65.5586 8.83548C65.805 9.30934 65.9282 9.84321 65.9282 10.4371C65.9282 11.0342 65.8034 11.5712 65.5538 12.0482C65.3074 12.5221 64.9347 12.898 64.4355 13.176C63.9396 13.4508 63.3157 13.5882 62.5638 13.5882H60.1851V12.3467H62.4311C62.9082 12.3467 63.2951 12.2646 63.5921 12.1003C63.889 11.9329 64.107 11.7055 64.246 11.418C64.385 11.1305 64.4545 10.8036 64.4545 10.4371C64.4545 10.0707 64.385 9.74528 64.246 9.46097C64.107 9.17666 63.8875 8.95395 63.5873 8.79284C63.2904 8.63172 62.8987 8.55117 62.4122 8.55117H60.5736V17H59.1094ZM67.6447 17V7.29545H69.1089V15.7395H73.5063V17H67.6447ZM75.1766 17V7.29545H81.2609V8.55591H76.6409V11.5128H80.9435V12.7685H76.6409V15.7395H81.3178V17H75.1766ZM82.7382 8.55591V7.29545H90.2488V8.55591H87.2209V17H85.7614V8.55591H82.7382ZM91.9085 17V7.29545H97.9928V8.55591H93.3727V11.5128H97.6753V12.7685H93.3727V15.7395H98.0496V17H91.9085ZM103.09 17H99.9486V7.29545H103.19C104.141 7.29545 104.957 7.48973 105.64 7.8783C106.322 8.2637 106.845 8.81811 107.208 9.54153C107.574 10.2618 107.758 11.1258 107.758 12.1335C107.758 13.1444 107.573 14.0131 107.203 14.7397C106.837 15.4663 106.306 16.0254 105.611 16.4172C104.916 16.8057 104.076 17 103.09 17ZM101.413 15.7206H103.01C103.749 15.7206 104.363 15.5816 104.853 15.3036C105.343 15.0224 105.709 14.6165 105.952 14.0858C106.196 13.5519 106.317 12.9012 106.317 12.1335C106.317 11.3722 106.196 10.7262 105.952 10.1954C105.712 9.66473 105.354 9.26195 104.877 8.98712C104.4 8.71228 103.807 8.57486 103.1 8.57486H101.413V15.7206Z" fill="#00F256"/>
</svg>
