<svg width="14" height="14" viewBox="0 0 14 14" fill="none" xmlns="http://www.w3.org/2000/svg">
<path d="M7.49967 4.16671V3.66671H6.49967V4.16671H7.49967ZM6.99967 7.00004H6.49967V7.20717L6.64614 7.35357L6.99967 7.00004ZM8.47947 9.18691C8.67474 9.38217 8.99127 9.38217 9.18654 9.18691C9.38181 8.99164 9.38181 8.67511 9.18654 8.47984L8.47947 9.18691ZM12.6663 7.00004C12.6663 10.1296 10.1293 12.6667 6.99967 12.6667V13.6667C10.6815 13.6667 13.6663 10.6819 13.6663 7.00004H12.6663ZM6.99967 12.6667C3.87006 12.6667 1.33301 10.1296 1.33301 7.00004H0.333008C0.333008 10.6819 3.31777 13.6667 6.99967 13.6667V12.6667ZM1.33301 7.00004C1.33301 3.87043 3.87006 1.33337 6.99967 1.33337V0.333374C3.31777 0.333374 0.333008 3.31814 0.333008 7.00004H1.33301ZM6.99967 1.33337C10.1293 1.33337 12.6663 3.87043 12.6663 7.00004H13.6663C13.6663 3.31814 10.6815 0.333374 6.99967 0.333374V1.33337ZM6.49967 4.16671V7.00004H7.49967V4.16671H6.49967ZM6.64614 7.35357L8.47947 9.18691L9.18654 8.47984L7.35321 6.64651L6.64614 7.35357Z" fill="#878794"/>
</svg>
