<svg width="18" height="18" viewBox="0 0 18 18" fill="none" xmlns="http://www.w3.org/2000/svg">
<path d="M3.16273 2.20001C2.80204 2.20001 2.45612 2.3433 2.20107 2.59835C1.94602 2.8534 1.80273 3.19932 1.80273 3.56001V12.4C1.80273 12.5804 1.87438 12.7533 2.0019 12.8808C2.12943 13.0084 2.30239 13.08 2.48273 13.08C2.66308 13.08 2.83604 13.0084 2.96357 12.8808C3.09109 12.7533 3.16273 12.5804 3.16273 12.4V3.56001H12.0027C12.1831 3.56001 12.356 3.48837 12.4836 3.36084C12.6111 3.23332 12.6827 3.06036 12.6827 2.88001C12.6827 2.69966 12.6111 2.5267 12.4836 2.39918C12.356 2.27165 12.1831 2.20001 12.0027 2.20001H3.16273ZM5.88273 4.92001C5.52204 4.92001 5.17612 5.0633 4.92107 5.31835C4.66602 5.5734 4.52273 5.91932 4.52273 6.28001V14.44C4.52273 14.8007 4.66602 15.1466 4.92107 15.4017C5.17612 15.6567 5.52204 15.8 5.88273 15.8H14.0427C14.4034 15.8 14.7494 15.6567 15.0044 15.4017C15.2594 15.1466 15.4027 14.8007 15.4027 14.44V6.28001C15.4027 5.91932 15.2594 5.5734 15.0044 5.31835C14.7494 5.0633 14.4034 4.92001 14.0427 4.92001H5.88273ZM5.88273 6.28001H14.0427V14.44H5.88273V6.28001Z" fill="#717D8A"/>
</svg>
