<svg width="16" height="16" viewBox="0 0 16 16" fill="none" xmlns="http://www.w3.org/2000/svg">
<path d="M10.16 1.33334H7.564C6.388 1.33334 5.456 1.33334 4.72733 1.43201C3.97667 1.53334 3.36933 1.74668 2.89067 2.22734C2.41133 2.70801 2.19867 3.31801 2.098 4.07134C2 4.80334 2 5.73868 2 6.91934V10.8113C2 11.8167 2.61333 12.678 3.48467 13.0393C3.44 12.4327 3.44 11.5827 3.44 10.8747V7.53468C3.44 6.68068 3.44 5.94401 3.51867 5.35468C3.60333 4.72268 3.794 4.11734 4.28333 3.62601C4.77267 3.13468 5.376 2.94334 6.00533 2.85801C6.592 2.77934 7.32533 2.77934 8.17667 2.77934H10.2233C11.074 2.77934 11.806 2.77934 12.3933 2.85801C12.2173 2.40893 11.9101 2.02327 11.5118 1.75131C11.1134 1.47936 10.6423 1.33371 10.16 1.33334Z" fill="#878794" fill-opacity="0.5"/>
<path d="M4.40039 7.59801C4.40039 5.78068 4.40039 4.87201 4.96306 4.30734C5.52506 3.74268 6.42972 3.74268 8.24039 3.74268H10.1604C11.9704 3.74268 12.8757 3.74268 13.4384 4.30734C14.0004 4.87201 14.0004 5.78068 14.0004 7.59801V10.8113C14.0004 12.6287 14.0004 13.5373 13.4384 14.102C12.8757 14.6667 11.9704 14.6667 10.1604 14.6667H8.24039C6.43039 14.6667 5.52506 14.6667 4.96306 14.102C4.40039 13.5373 4.40039 12.6287 4.40039 10.8113V7.59801Z" fill="#878794" fill-opacity="0.5"/>
</svg>
