<svg width="118" height="27" viewBox="0 0 118 27" fill="none" xmlns="http://www.w3.org/2000/svg">
<g clip-path="url(#clip0_461_2033)">
<g filter="url(#filter0_ii_461_2033)">
<mask id="path-1-inside-1_461_2033" fill="white">
<path d="M19.2457 13.5115V24.1909H12.3782V25.5951V26.9993H19.0456L22.0401 24.0048V22.1989H23.846L26.8235 19.2224V13.5125H19.2457V13.5115ZM24.0141 19.4075H22.0381V16.3059H24.0141V19.4075Z"/>
<path d="M24.0141 4.83782L22.0381 2.84682L19.2297 0.0384064H7.57782L4.78441 2.83181V4.83782H2.7784L0 7.61623V19.4072L4.78441 24.1766V24.1916H4.79942L7.57782 27H7.59283V7.63124H26.8235L24.0141 4.83782ZM4.78441 20.2246L3.95099 19.4062L2.79341 18.2486V7.63124H4.78441V20.2246ZM7.59283 4.83782V2.83181H18.0721L19.2447 4.00441L20.0631 4.83782H7.59283Z"/>
<path d="M19.24 19.4012V22.1986H12.3696V24.5953V26.992H9.57214V19.4012H19.24Z"/>
</mask>
<path d="M19.2457 13.5115V24.1909H12.3782V25.5951V26.9993H19.0456L22.0401 24.0048V22.1989H23.846L26.8235 19.2224V13.5125H19.2457V13.5115ZM24.0141 19.4075H22.0381V16.3059H24.0141V19.4075Z" fill="url(#paint0_linear_461_2033)"/>
<path d="M19.2457 13.5115V24.1909H12.3782V25.5951V26.9993H19.0456L22.0401 24.0048V22.1989H23.846L26.8235 19.2224V13.5125H19.2457V13.5115ZM24.0141 19.4075H22.0381V16.3059H24.0141V19.4075Z" fill="white"/>
<path d="M24.0141 4.83782L22.0381 2.84682L19.2297 0.0384064H7.57782L4.78441 2.83181V4.83782H2.7784L0 7.61623V19.4072L4.78441 24.1766V24.1916H4.79942L7.57782 27H7.59283V7.63124H26.8235L24.0141 4.83782ZM4.78441 20.2246L3.95099 19.4062L2.79341 18.2486V7.63124H4.78441V20.2246ZM7.59283 4.83782V2.83181H18.0721L19.2447 4.00441L20.0631 4.83782H7.59283Z" fill="url(#paint1_linear_461_2033)"/>
<path d="M24.0141 4.83782L22.0381 2.84682L19.2297 0.0384064H7.57782L4.78441 2.83181V4.83782H2.7784L0 7.61623V19.4072L4.78441 24.1766V24.1916H4.79942L7.57782 27H7.59283V7.63124H26.8235L24.0141 4.83782ZM4.78441 20.2246L3.95099 19.4062L2.79341 18.2486V7.63124H4.78441V20.2246ZM7.59283 4.83782V2.83181H18.0721L19.2447 4.00441L20.0631 4.83782H7.59283Z" fill="white"/>
<path d="M19.24 19.4012V22.1986H12.3696V24.5953V26.992H9.57214V19.4012H19.24Z" fill="url(#paint2_linear_461_2033)"/>
<path d="M19.24 19.4012V22.1986H12.3696V24.5953V26.992H9.57214V19.4012H19.24Z" fill="white"/>
<path d="M19.2405 19.4012H19.2826V19.359H19.2405V19.4012ZM19.2405 22.1946V22.2367H19.2826V22.1946H19.2405ZM7.59282 0.0805339H9.77893V-0.00372112H7.59282V0.0805339ZM9.77893 2.78969H7.59283V2.87394H9.77893V2.78969ZM7.59282 4.87798H9.77893V4.79373H7.59282V4.87798ZM9.77893 7.58714H7.59282V7.67139H9.77893V7.58714ZM23.8452 22.1606H22.0392V22.2449H23.8452V22.1606ZM19.1983 19.4012V22.1946H19.2826V19.4012H19.1983ZM19.2405 22.1524H17.0544V22.2367H19.2405V22.1524ZM17.4346 19.4433H19.2405V19.359H17.4346V19.4433ZM2.92623 4.87798H4.78417V4.79373H2.92623V4.87798ZM4.8142 24.163L0.0297887 19.3786L-0.0297887 19.4382L4.75462 24.2226L4.8142 24.163ZM2.76374 18.2807L4.75475 20.2557L4.81408 20.1959L2.82308 18.2209L2.76374 18.2807ZM19.2457 24.1909V24.2751H19.33V24.1909H19.2457ZM12.3782 24.1909V24.1066H12.294V24.1909H12.3782ZM12.3782 26.9993H12.294V27.0835H12.3782V26.9993ZM19.0456 26.9993V27.0835H19.0805L19.1052 27.0589L19.0456 26.9993ZM22.0401 24.0048L22.0997 24.0644L22.1244 24.0397V24.0048H22.0401ZM22.0401 22.1989V22.1146H21.9559V22.1989H22.0401ZM23.846 22.1989V22.2831H23.8809L23.9056 22.2585L23.846 22.1989ZM26.8235 19.2224L26.8831 19.282L26.9078 19.2573V19.2224H26.8235ZM26.8235 13.5125H26.9078V13.4282H26.8235V13.5125ZM19.2457 13.5125H19.1615V13.5967H19.2457V13.5125ZM24.0141 19.4075V19.4917H24.0984V19.4075H24.0141ZM22.0381 19.4075H21.9539V19.4917H22.0381V19.4075ZM22.0381 16.3059V16.2216H21.9539V16.3059H22.0381ZM24.0141 16.3059H24.0984V16.2216H24.0141V16.3059ZM24.0141 4.83782L23.9543 4.89718L23.9547 4.89757L24.0141 4.83782ZM22.0381 2.84682L22.0979 2.78747L22.0977 2.78725L22.0381 2.84682ZM19.2297 0.0384064L19.2893 -0.0211709L19.2646 -0.0458486H19.2297V0.0384064ZM7.57782 0.0384064V-0.0458486H7.54292L7.51825 -0.0211709L7.57782 0.0384064ZM4.78441 2.83181L4.72484 2.77224L4.70016 2.79691V2.83181H4.78441ZM4.78441 4.83782V4.92208H4.86867V4.83782H4.78441ZM2.7784 4.83782V4.75357H2.7435L2.71883 4.77825L2.7784 4.83782ZM0 7.61623L-0.0595773 7.55665L-0.084255 7.58133V7.61623H0ZM0 19.4072H-0.084255V19.4421L-0.0594836 19.4668L0 19.4072ZM4.78441 24.1766H4.86867V24.1416L4.8439 24.1169L4.78441 24.1766ZM4.78441 24.1916H4.70016V24.2758H4.78441V24.1916ZM4.79942 24.1916L4.85932 24.1323L4.83459 24.1073H4.79942V24.1916ZM7.57782 27L7.51793 27.0593L7.54266 27.0843H7.57782V27ZM7.59283 27V27.0843H7.67709V27H7.59283ZM7.59283 7.63124V7.54698H7.50858V7.63124H7.59283ZM26.8235 7.63124V7.71549H27.0278L26.8829 7.57149L26.8235 7.63124ZM4.78441 20.2246L4.72538 20.2847L4.86867 20.4254V20.2246H4.78441ZM3.95099 19.4062L3.89142 19.4657L3.89196 19.4663L3.95099 19.4062ZM2.79341 18.2486H2.70916V18.2835L2.73383 18.3082L2.79341 18.2486ZM2.79341 7.63124V7.54698H2.70916V7.63124H2.79341ZM4.78441 7.63124H4.86867V7.54698H4.78441V7.63124ZM7.59283 4.83782H7.50858V4.92208H7.59283V4.83782ZM7.59283 2.83181V2.74756H7.50858V2.83181H7.59283ZM18.0721 2.83181L18.1317 2.77224L18.107 2.74756H18.0721V2.83181ZM19.2447 4.00441L19.3048 3.94537L19.3043 3.94483L19.2447 4.00441ZM20.0631 4.83782V4.92208H20.2639L20.1232 4.77879L20.0631 4.83782ZM19.24 19.4012H19.3243V19.3169H19.24V19.4012ZM19.24 22.1986V22.2828H19.3243V22.1986H19.24ZM12.3696 22.1986V22.1143H12.2853V22.1986H12.3696ZM12.3696 26.992V27.0762H12.4538V26.992H12.3696ZM9.57214 26.992H9.48789V27.0762H9.57214V26.992ZM9.57214 19.4012V19.3169H9.48789V19.4012H9.57214ZM19.1615 13.5115V24.1909H19.33V13.5115H19.1615ZM19.2457 24.1066H12.3782V24.2751H19.2457V24.1066ZM12.3782 27.0835H19.0456V26.915H12.3782V27.0835ZM19.1052 27.0589L22.0997 24.0644L21.9805 23.9452L18.986 26.9397L19.1052 27.0589ZM22.1244 24.0048V22.1989H21.9559V24.0048H22.1244ZM22.0401 22.2831H23.846V22.1146H22.0401V22.2831ZM23.9056 22.2585L26.8831 19.282L26.764 19.1628L23.7865 22.1393L23.9056 22.2585ZM26.9078 19.2224V13.5125H26.7393V19.2224H26.9078ZM26.8235 13.4282H19.2457V13.5967H26.8235V13.4282ZM19.33 13.5125V13.5115H19.1615V13.5125H19.33ZM24.0141 19.3232H22.0381V19.4917H24.0141V19.3232ZM22.1224 19.4075V16.3059H21.9539V19.4075H22.1224ZM22.0381 16.3901H24.0141V16.2216H22.0381V16.3901ZM23.9299 16.3059V19.4075H24.0984V16.3059H23.9299ZM24.0739 4.77847L22.0979 2.78747L21.9783 2.90618L23.9543 4.89718L24.0739 4.77847ZM19.2297 -0.0458486H7.57782V0.122661H19.2297V-0.0458486ZM7.51825 -0.0211709L4.72484 2.77224L4.84399 2.89139L7.6374 0.0979837L7.51825 -0.0211709ZM4.70016 2.83181V4.83782H4.86867V2.83181H4.70016ZM4.78441 4.75357H2.7784V4.92208H4.78441V4.75357ZM2.71883 4.77825L-0.0595773 7.55665L0.0595773 7.6758L2.83798 4.8974L2.71883 4.77825ZM-0.084255 7.61623V19.4072H0.084255V7.61623H-0.084255ZM-0.0594836 19.4668L4.72493 24.2363L4.8439 24.1169L0.0594836 19.3475L-0.0594836 19.4668ZM4.70016 24.1766V24.1916H4.86867V24.1766H4.70016ZM4.78441 24.2758H4.79942V24.1073H4.78441V24.2758ZM4.73952 24.2508L7.51793 27.0593L7.63772 26.9407L4.85932 24.1323L4.73952 24.2508ZM7.57782 27.0843H7.59283V26.9157H7.57782V27.0843ZM7.67709 27V7.63124H7.50858V27H7.67709ZM7.59283 7.71549H26.8235V7.54698H7.59283V7.71549ZM26.8829 7.57149L24.0735 4.77808L23.9547 4.89757L26.7641 7.69098L26.8829 7.57149ZM4.84345 20.1645L4.01003 19.3461L3.89196 19.4663L4.72538 20.2847L4.84345 20.1645ZM4.01057 19.3466L2.85299 18.189L2.73383 18.3082L3.89142 19.4657L4.01057 19.3466ZM2.87767 18.2486V7.63124H2.70916V18.2486H2.87767ZM2.79341 7.71549H4.78441V7.54698H2.79341V7.71549ZM4.70016 7.63124V20.2246H4.86867V7.63124H4.70016ZM7.67709 4.83782V2.83181H7.50858V4.83782H7.67709ZM7.59283 2.91607H18.0721V2.74756H7.59283V2.91607ZM18.0125 2.89139L19.1851 4.06398L19.3043 3.94483L18.1317 2.77224L18.0125 2.89139ZM19.1846 4.06344L20.003 4.89686L20.1232 4.77879L19.3048 3.94537L19.1846 4.06344ZM20.0631 4.75357H7.59283V4.92208H20.0631V4.75357ZM19.1558 19.4012V22.1986H19.3243V19.4012H19.1558ZM19.24 22.1143H12.3696V22.2828H19.24V22.1143ZM12.3696 26.9077H9.57214V27.0762H12.3696V26.9077ZM9.6564 26.992V19.4012H9.48789V26.992H9.6564ZM9.57214 19.4854H19.24V19.3169H9.57214V19.4854ZM22.0977 2.78725L19.2893 -0.0211709L19.1701 0.0979836L21.9785 2.9064L22.0977 2.78725ZM12.294 24.1909V25.5951H12.4625V24.1909H12.294ZM12.294 25.5951V26.9993H12.4625V25.5951H12.294ZM12.2853 22.1986V24.5953H12.4538V22.1986H12.2853ZM12.2853 24.5953V26.992H12.4538V24.5953H12.2853Z" fill="url(#paint3_linear_461_2033)" style="mix-blend-mode:overlay" mask="url(#path-1-inside-1_461_2033)"/>
</g>
<mask id="mask0_461_2033" style="mask-type:alpha" maskUnits="userSpaceOnUse" x="0" y="0" width="27" height="27">
<mask id="path-3-inside-2_461_2033" fill="white">
<path d="M19.2457 13.5115V24.1909H12.3782V25.5951V26.9993H19.0456L22.0401 24.0048V22.1989H23.846L26.8235 19.2224V13.5125H19.2457V13.5115ZM24.0141 19.4075H22.0381V16.3059H24.0141V19.4075Z"/>
<path d="M24.0141 4.83782L22.0381 2.84682L19.2297 0.0384064H7.57782L4.78441 2.83181V4.83782H2.7784L0 7.61623V19.4072L4.78441 24.1766V24.1916H4.79942L7.57782 27H7.59283V7.63124H26.8235L24.0141 4.83782ZM4.78441 20.2246L3.95099 19.4062L2.79341 18.2486V7.63124H4.78441V20.2246ZM7.59283 4.83782V2.83181H18.0721L19.2447 4.00441L20.0631 4.83782H7.59283Z"/>
<path d="M19.24 19.4012V22.1986H12.3696V24.5953V26.992H9.57214V19.4012H19.24Z"/>
</mask>
<path d="M19.2457 13.5115V24.1909H12.3782V25.5951V26.9993H19.0456L22.0401 24.0048V22.1989H23.846L26.8235 19.2224V13.5125H19.2457V13.5115ZM24.0141 19.4075H22.0381V16.3059H24.0141V19.4075Z" fill="url(#paint4_linear_461_2033)"/>
<path d="M19.2457 13.5115V24.1909H12.3782V25.5951V26.9993H19.0456L22.0401 24.0048V22.1989H23.846L26.8235 19.2224V13.5125H19.2457V13.5115ZM24.0141 19.4075H22.0381V16.3059H24.0141V19.4075Z" fill="url(#paint5_radial_461_2033)" fill-opacity="0.3"/>
<path d="M24.0141 4.83782L22.0381 2.84682L19.2297 0.0384064H7.57782L4.78441 2.83181V4.83782H2.7784L0 7.61623V19.4072L4.78441 24.1766V24.1916H4.79942L7.57782 27H7.59283V7.63124H26.8235L24.0141 4.83782ZM4.78441 20.2246L3.95099 19.4062L2.79341 18.2486V7.63124H4.78441V20.2246ZM7.59283 4.83782V2.83181H18.0721L19.2447 4.00441L20.0631 4.83782H7.59283Z" fill="url(#paint6_linear_461_2033)"/>
<path d="M24.0141 4.83782L22.0381 2.84682L19.2297 0.0384064H7.57782L4.78441 2.83181V4.83782H2.7784L0 7.61623V19.4072L4.78441 24.1766V24.1916H4.79942L7.57782 27H7.59283V7.63124H26.8235L24.0141 4.83782ZM4.78441 20.2246L3.95099 19.4062L2.79341 18.2486V7.63124H4.78441V20.2246ZM7.59283 4.83782V2.83181H18.0721L19.2447 4.00441L20.0631 4.83782H7.59283Z" fill="url(#paint7_radial_461_2033)" fill-opacity="0.3"/>
<path d="M19.24 19.4012V22.1986H12.3696V24.5953V26.992H9.57214V19.4012H19.24Z" fill="url(#paint8_linear_461_2033)"/>
<path d="M19.24 19.4012V22.1986H12.3696V24.5953V26.992H9.57214V19.4012H19.24Z" fill="url(#paint9_radial_461_2033)" fill-opacity="0.3"/>
<path d="M19.2405 19.4012H19.2826V19.359H19.2405V19.4012ZM19.2405 22.1946V22.2367H19.2826V22.1946H19.2405ZM7.59282 0.0805339H9.77893V-0.00372112H7.59282V0.0805339ZM9.77893 2.78969H7.59283V2.87394H9.77893V2.78969ZM7.59282 4.87798H9.77893V4.79373H7.59282V4.87798ZM9.77893 7.58714H7.59282V7.67139H9.77893V7.58714ZM23.8452 22.1606H22.0392V22.2449H23.8452V22.1606ZM19.1983 19.4012V22.1946H19.2826V19.4012H19.1983ZM19.2405 22.1524H17.0544V22.2367H19.2405V22.1524ZM17.4346 19.4433H19.2405V19.359H17.4346V19.4433ZM2.92623 4.87798H4.78417V4.79373H2.92623V4.87798ZM4.8142 24.163L0.0297887 19.3786L-0.0297887 19.4382L4.75462 24.2226L4.8142 24.163ZM2.76374 18.2807L4.75475 20.2557L4.81408 20.1959L2.82308 18.2209L2.76374 18.2807ZM19.2457 24.1909V24.2751H19.33V24.1909H19.2457ZM12.3782 24.1909V24.1066H12.294V24.1909H12.3782ZM12.3782 26.9993H12.294V27.0835H12.3782V26.9993ZM19.0456 26.9993V27.0835H19.0805L19.1052 27.0589L19.0456 26.9993ZM22.0401 24.0048L22.0997 24.0644L22.1244 24.0397V24.0048H22.0401ZM22.0401 22.1989V22.1146H21.9559V22.1989H22.0401ZM23.846 22.1989V22.2831H23.8809L23.9056 22.2585L23.846 22.1989ZM26.8235 19.2224L26.8831 19.282L26.9078 19.2573V19.2224H26.8235ZM26.8235 13.5125H26.9078V13.4282H26.8235V13.5125ZM19.2457 13.5125H19.1615V13.5967H19.2457V13.5125ZM24.0141 19.4075V19.4917H24.0984V19.4075H24.0141ZM22.0381 19.4075H21.9539V19.4917H22.0381V19.4075ZM22.0381 16.3059V16.2216H21.9539V16.3059H22.0381ZM24.0141 16.3059H24.0984V16.2216H24.0141V16.3059ZM24.0141 4.83782L23.9543 4.89718L23.9547 4.89757L24.0141 4.83782ZM22.0381 2.84682L22.0979 2.78747L22.0977 2.78725L22.0381 2.84682ZM19.2297 0.0384064L19.2893 -0.0211709L19.2646 -0.0458486H19.2297V0.0384064ZM7.57782 0.0384064V-0.0458486H7.54292L7.51825 -0.0211709L7.57782 0.0384064ZM4.78441 2.83181L4.72484 2.77224L4.70016 2.79691V2.83181H4.78441ZM4.78441 4.83782V4.92208H4.86867V4.83782H4.78441ZM2.7784 4.83782V4.75357H2.7435L2.71883 4.77825L2.7784 4.83782ZM0 7.61623L-0.0595773 7.55665L-0.084255 7.58133V7.61623H0ZM0 19.4072H-0.084255V19.4421L-0.0594836 19.4668L0 19.4072ZM4.78441 24.1766H4.86867V24.1416L4.8439 24.1169L4.78441 24.1766ZM4.78441 24.1916H4.70016V24.2758H4.78441V24.1916ZM4.79942 24.1916L4.85932 24.1323L4.83459 24.1073H4.79942V24.1916ZM7.57782 27L7.51793 27.0593L7.54266 27.0843H7.57782V27ZM7.59283 27V27.0843H7.67709V27H7.59283ZM7.59283 7.63124V7.54698H7.50858V7.63124H7.59283ZM26.8235 7.63124V7.71549H27.0278L26.8829 7.57149L26.8235 7.63124ZM4.78441 20.2246L4.72538 20.2847L4.86867 20.4254V20.2246H4.78441ZM3.95099 19.4062L3.89142 19.4657L3.89196 19.4663L3.95099 19.4062ZM2.79341 18.2486H2.70916V18.2835L2.73383 18.3082L2.79341 18.2486ZM2.79341 7.63124V7.54698H2.70916V7.63124H2.79341ZM4.78441 7.63124H4.86867V7.54698H4.78441V7.63124ZM7.59283 4.83782H7.50858V4.92208H7.59283V4.83782ZM7.59283 2.83181V2.74756H7.50858V2.83181H7.59283ZM18.0721 2.83181L18.1317 2.77224L18.107 2.74756H18.0721V2.83181ZM19.2447 4.00441L19.3048 3.94537L19.3043 3.94483L19.2447 4.00441ZM20.0631 4.83782V4.92208H20.2639L20.1232 4.77879L20.0631 4.83782ZM19.24 19.4012H19.3243V19.3169H19.24V19.4012ZM19.24 22.1986V22.2828H19.3243V22.1986H19.24ZM12.3696 22.1986V22.1143H12.2853V22.1986H12.3696ZM12.3696 26.992V27.0762H12.4538V26.992H12.3696ZM9.57214 26.992H9.48789V27.0762H9.57214V26.992ZM9.57214 19.4012V19.3169H9.48789V19.4012H9.57214ZM19.1615 13.5115V24.1909H19.33V13.5115H19.1615ZM19.2457 24.1066H12.3782V24.2751H19.2457V24.1066ZM12.3782 27.0835H19.0456V26.915H12.3782V27.0835ZM19.1052 27.0589L22.0997 24.0644L21.9805 23.9452L18.986 26.9397L19.1052 27.0589ZM22.1244 24.0048V22.1989H21.9559V24.0048H22.1244ZM22.0401 22.2831H23.846V22.1146H22.0401V22.2831ZM23.9056 22.2585L26.8831 19.282L26.764 19.1628L23.7865 22.1393L23.9056 22.2585ZM26.9078 19.2224V13.5125H26.7393V19.2224H26.9078ZM26.8235 13.4282H19.2457V13.5967H26.8235V13.4282ZM19.33 13.5125V13.5115H19.1615V13.5125H19.33ZM24.0141 19.3232H22.0381V19.4917H24.0141V19.3232ZM22.1224 19.4075V16.3059H21.9539V19.4075H22.1224ZM22.0381 16.3901H24.0141V16.2216H22.0381V16.3901ZM23.9299 16.3059V19.4075H24.0984V16.3059H23.9299ZM24.0739 4.77847L22.0979 2.78747L21.9783 2.90618L23.9543 4.89718L24.0739 4.77847ZM19.2297 -0.0458486H7.57782V0.122661H19.2297V-0.0458486ZM7.51825 -0.0211709L4.72484 2.77224L4.84399 2.89139L7.6374 0.0979837L7.51825 -0.0211709ZM4.70016 2.83181V4.83782H4.86867V2.83181H4.70016ZM4.78441 4.75357H2.7784V4.92208H4.78441V4.75357ZM2.71883 4.77825L-0.0595773 7.55665L0.0595773 7.6758L2.83798 4.8974L2.71883 4.77825ZM-0.084255 7.61623V19.4072H0.084255V7.61623H-0.084255ZM-0.0594836 19.4668L4.72493 24.2363L4.8439 24.1169L0.0594836 19.3475L-0.0594836 19.4668ZM4.70016 24.1766V24.1916H4.86867V24.1766H4.70016ZM4.78441 24.2758H4.79942V24.1073H4.78441V24.2758ZM4.73952 24.2508L7.51793 27.0593L7.63772 26.9407L4.85932 24.1323L4.73952 24.2508ZM7.57782 27.0843H7.59283V26.9157H7.57782V27.0843ZM7.67709 27V7.63124H7.50858V27H7.67709ZM7.59283 7.71549H26.8235V7.54698H7.59283V7.71549ZM26.8829 7.57149L24.0735 4.77808L23.9547 4.89757L26.7641 7.69098L26.8829 7.57149ZM4.84345 20.1645L4.01003 19.3461L3.89196 19.4663L4.72538 20.2847L4.84345 20.1645ZM4.01057 19.3466L2.85299 18.189L2.73383 18.3082L3.89142 19.4657L4.01057 19.3466ZM2.87767 18.2486V7.63124H2.70916V18.2486H2.87767ZM2.79341 7.71549H4.78441V7.54698H2.79341V7.71549ZM4.70016 7.63124V20.2246H4.86867V7.63124H4.70016ZM7.67709 4.83782V2.83181H7.50858V4.83782H7.67709ZM7.59283 2.91607H18.0721V2.74756H7.59283V2.91607ZM18.0125 2.89139L19.1851 4.06398L19.3043 3.94483L18.1317 2.77224L18.0125 2.89139ZM19.1846 4.06344L20.003 4.89686L20.1232 4.77879L19.3048 3.94537L19.1846 4.06344ZM20.0631 4.75357H7.59283V4.92208H20.0631V4.75357ZM19.1558 19.4012V22.1986H19.3243V19.4012H19.1558ZM19.24 22.1143H12.3696V22.2828H19.24V22.1143ZM12.3696 26.9077H9.57214V27.0762H12.3696V26.9077ZM9.6564 26.992V19.4012H9.48789V26.992H9.6564ZM9.57214 19.4854H19.24V19.3169H9.57214V19.4854ZM22.0977 2.78725L19.2893 -0.0211709L19.1701 0.0979836L21.9785 2.9064L22.0977 2.78725ZM12.294 24.1909V25.5951H12.4625V24.1909H12.294ZM12.294 25.5951V26.9993H12.4625V25.5951H12.294ZM12.2853 22.1986V24.5953H12.4538V22.1986H12.2853ZM12.2853 24.5953V26.992H12.4538V24.5953H12.2853Z" fill="url(#paint10_linear_461_2033)" mask="url(#path-3-inside-2_461_2033)"/>
</mask>
<g mask="url(#mask0_461_2033)">
</g>
</g>
<path d="M43.7869 22.2647C39.2317 22.2647 36.3641 19.0882 36.3641 13.9706V13.9596C36.3641 8.94118 39.2317 5.81985 43.7538 5.81985C47.4817 5.81985 49.82 7.97059 50.4817 10.8382L50.5259 11.0368H47.9891L47.956 10.9154C47.2832 9.07353 45.8384 8.00368 43.7648 8.00368C40.7207 8.00368 38.8788 10.2206 38.8788 13.9485V13.9596C38.8788 17.7647 40.7759 20.0809 43.8089 20.0809C46.3898 20.0809 48.1766 18.4485 48.2097 16.0331V15.7684H44.0295V13.75H50.6472V15.3824C50.6472 19.6949 48.0994 22.2647 43.7869 22.2647ZM56.1398 22.2096C53.8236 22.2096 52.2685 20.7868 52.2685 18.7022V18.6801C52.2685 16.6618 53.8347 15.4265 56.581 15.261L59.7354 15.0735V14.2022C59.7354 12.9228 58.9082 12.1507 57.4303 12.1507C56.0516 12.1507 55.2023 12.8015 55.0038 13.7279L54.9817 13.8272H52.7317L52.7428 13.7059C52.9082 11.7096 54.6398 10.1765 57.4964 10.1765C60.331 10.1765 62.1288 11.6765 62.1288 14.0037V22H59.7354V20.1691H59.6913C59.0185 21.4154 57.6729 22.2096 56.1398 22.2096ZM54.6729 18.6471C54.6729 19.6618 55.5111 20.3015 56.7906 20.3015C58.467 20.3015 59.7354 19.1654 59.7354 17.6544V16.75L56.9009 16.9265C55.467 17.0147 54.6729 17.6434 54.6729 18.625V18.6471ZM68.7906 22.2316C65.8898 22.2316 64.1913 20.7978 63.9486 18.6801L63.9376 18.5809H66.2979L66.32 18.6912C66.5406 19.761 67.3347 20.3897 68.8016 20.3897C70.2354 20.3897 71.0957 19.7941 71.0957 18.8566V18.8456C71.0957 18.0956 70.6766 17.6654 69.4303 17.3676L67.5332 16.9375C65.3273 16.4301 64.2354 15.3713 64.2354 13.6838V13.6728C64.2354 11.5993 66.0442 10.1765 68.7134 10.1765C71.4597 10.1765 73.1141 11.7096 73.2354 13.6838L73.2464 13.8162H71.0075L70.9964 13.739C70.8531 12.7243 70.0589 12.0184 68.7134 12.0184C67.4339 12.0184 66.6288 12.625 66.6288 13.5515V13.5625C66.6288 14.2794 67.1031 14.7647 68.3494 15.0625L70.2354 15.4926C72.6067 16.0441 73.5111 16.9816 73.5111 18.6471V18.6581C73.5111 20.7757 71.5259 22.2316 68.7906 22.2316ZM76.7097 25.8713C76.2464 25.8713 75.7501 25.8162 75.4634 25.761V23.8971C75.6509 23.9412 75.9266 23.9853 76.2464 23.9853C77.3714 23.9853 77.9891 23.6875 78.3861 22.5625L78.5847 22.011L74.3604 10.3971H76.9413L79.8641 19.8382H79.9413L82.8641 10.3971H85.3788L81.0553 22.5404C80.195 24.9449 78.9817 25.8713 76.7097 25.8713ZM89.9339 22.2096C87.6178 22.2096 86.0626 20.7868 86.0626 18.7022V18.6801C86.0626 16.6618 87.6288 15.4265 90.3751 15.261L93.5295 15.0735V14.2022C93.5295 12.9228 92.7023 12.1507 91.2244 12.1507C89.8457 12.1507 88.9964 12.8015 88.7979 13.7279L88.7759 13.8272H86.5259L86.5369 13.7059C86.7023 11.7096 88.4339 10.1765 91.2906 10.1765C94.1251 10.1765 95.9229 11.6765 95.9229 14.0037V22H93.5295V20.1691H93.4854C92.8126 21.4154 91.467 22.2096 89.9339 22.2096ZM88.467 18.6471C88.467 19.6618 89.3053 20.3015 90.5847 20.3015C92.2611 20.3015 93.5295 19.1654 93.5295 17.6544V16.75L90.695 16.9265C89.2611 17.0147 88.467 17.6434 88.467 18.625V18.6471ZM98.2391 22V10.3971H100.621V12.3824H100.677C101.052 11.0257 102.022 10.1765 103.346 10.1765C103.688 10.1765 103.985 10.2316 104.173 10.2647V12.4816C103.985 12.4044 103.566 12.3493 103.103 12.3493C101.57 12.3493 100.621 13.3529 100.621 15.0846V22H98.2391ZM109.478 22.2316C106.522 22.2316 104.625 19.8934 104.625 16.1985V16.1875C104.625 12.4926 106.544 10.1765 109.456 10.1765C111.099 10.1765 112.423 11.0037 113.118 12.3713H113.162V6.08456H115.555V22H113.162V20.0368H113.118C112.423 21.3934 111.144 22.2316 109.478 22.2316ZM110.107 20.1801C111.905 20.1801 113.173 18.614 113.173 16.1985V16.1875C113.173 13.7831 111.894 12.2169 110.107 12.2169C108.232 12.2169 107.063 13.739 107.063 16.1875V16.1985C107.063 18.6691 108.221 20.1801 110.107 20.1801Z" fill="white"/>
<defs>
<filter id="filter0_ii_461_2033" x="0" y="-0.0458486" width="26.8242" height="27.1301" filterUnits="userSpaceOnUse" color-interpolation-filters="sRGB">
<feFlood flood-opacity="0" result="BackgroundImageFix"/>
<feBlend mode="normal" in="SourceGraphic" in2="BackgroundImageFix" result="shape"/>
<feColorMatrix in="SourceAlpha" type="matrix" values="0 0 0 0 0 0 0 0 0 0 0 0 0 0 0 0 0 0 127 0" result="hardAlpha"/>
<feOffset dy="-0.16851"/>
<feGaussianBlur stdDeviation="0.0421275"/>
<feComposite in2="hardAlpha" operator="arithmetic" k2="-1" k3="1"/>
<feColorMatrix type="matrix" values="0 0 0 0 0 0 0 0 0 0 0 0 0 0 0 0 0 0 0.1 0"/>
<feBlend mode="normal" in2="shape" result="effect1_innerShadow_461_2033"/>
<feColorMatrix in="SourceAlpha" type="matrix" values="0 0 0 0 0 0 0 0 0 0 0 0 0 0 0 0 0 0 127 0" result="hardAlpha"/>
<feOffset dy="0.16851"/>
<feGaussianBlur stdDeviation="0.0421275"/>
<feComposite in2="hardAlpha" operator="arithmetic" k2="-1" k3="1"/>
<feColorMatrix type="matrix" values="0 0 0 0 1 0 0 0 0 1 0 0 0 0 1 0 0 0 0.06 0"/>
<feBlend mode="normal" in2="effect1_innerShadow_461_2033" result="effect2_innerShadow_461_2033"/>
</filter>
<linearGradient id="paint0_linear_461_2033" x1="13.4118" y1="0.0384064" x2="13.4118" y2="27" gradientUnits="userSpaceOnUse">
<stop stop-color="#1F1F1F"/>
<stop offset="1" stop-color="#171717"/>
</linearGradient>
<linearGradient id="paint1_linear_461_2033" x1="13.4118" y1="0.0384064" x2="13.4118" y2="27" gradientUnits="userSpaceOnUse">
<stop stop-color="#1F1F1F"/>
<stop offset="1" stop-color="#171717"/>
</linearGradient>
<linearGradient id="paint2_linear_461_2033" x1="13.4118" y1="0.0384064" x2="13.4118" y2="27" gradientUnits="userSpaceOnUse">
<stop stop-color="#1F1F1F"/>
<stop offset="1" stop-color="#171717"/>
</linearGradient>
<linearGradient id="paint3_linear_461_2033" x1="12.7511" y1="-1.45139" x2="11.3684" y2="22.0535" gradientUnits="userSpaceOnUse">
<stop stop-color="white"/>
<stop offset="0.72903" stop-color="white" stop-opacity="0.2"/>
</linearGradient>
<linearGradient id="paint4_linear_461_2033" x1="13.4118" y1="0.0384064" x2="13.4118" y2="27" gradientUnits="userSpaceOnUse">
<stop stop-color="#1F1F1F"/>
<stop offset="1" stop-color="#171717"/>
</linearGradient>
<radialGradient id="paint5_radial_461_2033" cx="0" cy="0" r="1" gradientUnits="userSpaceOnUse" gradientTransform="translate(13.8706 0.0384076) rotate(92.2625) scale(11.6222 40.4457)">
<stop stop-color="#81BBFF"/>
<stop offset="1" stop-color="#191919" stop-opacity="0"/>
</radialGradient>
<linearGradient id="paint6_linear_461_2033" x1="13.4118" y1="0.0384064" x2="13.4118" y2="27" gradientUnits="userSpaceOnUse">
<stop stop-color="#1F1F1F"/>
<stop offset="1" stop-color="#171717"/>
</linearGradient>
<radialGradient id="paint7_radial_461_2033" cx="0" cy="0" r="1" gradientUnits="userSpaceOnUse" gradientTransform="translate(13.8706 0.0384076) rotate(92.2625) scale(11.6222 40.4457)">
<stop stop-color="#81BBFF"/>
<stop offset="1" stop-color="#191919" stop-opacity="0"/>
</radialGradient>
<linearGradient id="paint8_linear_461_2033" x1="13.4118" y1="0.0384064" x2="13.4118" y2="27" gradientUnits="userSpaceOnUse">
<stop stop-color="#1F1F1F"/>
<stop offset="1" stop-color="#171717"/>
</linearGradient>
<radialGradient id="paint9_radial_461_2033" cx="0" cy="0" r="1" gradientUnits="userSpaceOnUse" gradientTransform="translate(13.8706 0.0384076) rotate(92.2625) scale(11.6222 40.4457)">
<stop stop-color="#81BBFF"/>
<stop offset="1" stop-color="#191919" stop-opacity="0"/>
</radialGradient>
<linearGradient id="paint10_linear_461_2033" x1="12.7511" y1="-1.45139" x2="11.3684" y2="22.0535" gradientUnits="userSpaceOnUse">
<stop stop-color="white"/>
<stop offset="0.72903" stop-color="white" stop-opacity="0.2"/>
</linearGradient>
<clipPath id="clip0_461_2033">
<rect width="26.8235" height="26.9616" fill="white" transform="translate(0 0.0384064)"/>
</clipPath>
</defs>
</svg>
