<svg width="122" height="24" viewBox="0 0 122 24" fill="none" xmlns="http://www.w3.org/2000/svg">
<rect x="1.41016" y="0.5" width="120" height="23" rx="5.5" fill="white" fill-opacity="0.1"/>
<rect x="1.41016" y="0.5" width="120" height="23" rx="5.5" stroke="#252525"/>
<path d="M14.9108 5.33334C14.734 5.33334 14.5644 5.40358 14.4394 5.52861C14.3144 5.65363 14.2441 5.8232 14.2441 6.00001V7.33334C14.2441 7.51015 14.3144 7.67972 14.4394 7.80475C14.5644 7.92977 14.734 8.00001 14.9108 8.00001C15.0876 8.00001 15.2572 7.92977 15.3822 7.80475C15.5072 7.67972 15.5775 7.51015 15.5775 7.33334V6.00001C15.5775 5.8232 15.5072 5.65363 15.3822 5.52861C15.2572 5.40358 15.0876 5.33334 14.9108 5.33334ZM20.9108 11.3333H19.5775C19.4007 11.3333 19.2311 11.4036 19.1061 11.5286C18.981 11.6536 18.9108 11.8232 18.9108 12C18.9108 12.1768 18.981 12.3464 19.1061 12.4714C19.2311 12.5964 19.4007 12.6667 19.5775 12.6667H20.9108C21.0876 12.6667 21.2572 12.5964 21.3822 12.4714C21.5072 12.3464 21.5775 12.1768 21.5775 12C21.5775 11.8232 21.5072 11.6536 21.3822 11.5286C21.2572 11.4036 21.0876 11.3333 20.9108 11.3333ZM10.9108 12C10.9108 11.8232 10.8406 11.6536 10.7155 11.5286C10.5905 11.4036 10.421 11.3333 10.2441 11.3333H8.91081C8.734 11.3333 8.56443 11.4036 8.4394 11.5286C8.31438 11.6536 8.24414 11.8232 8.24414 12C8.24414 12.1768 8.31438 12.3464 8.4394 12.4714C8.56443 12.5964 8.734 12.6667 8.91081 12.6667H10.2441C10.421 12.6667 10.5905 12.5964 10.7155 12.4714C10.8406 12.3464 10.9108 12.1768 10.9108 12ZM11.0575 7.33334C10.9275 7.21046 10.7541 7.14423 10.5753 7.14924C10.3965 7.15424 10.227 7.23005 10.1041 7.36001C9.98126 7.48997 9.91503 7.66341 9.92003 7.8422C9.92503 8.02098 10.0009 8.19046 10.1308 8.31334L11.0908 9.24001C11.1552 9.30222 11.2315 9.35081 11.3151 9.38288C11.3988 9.41495 11.488 9.42984 11.5775 9.42668C11.6673 9.42633 11.7561 9.40785 11.8386 9.37234C11.9211 9.33682 11.9955 9.28501 12.0575 9.22001C12.1816 9.0951 12.2513 8.92613 12.2513 8.75001C12.2513 8.57389 12.1816 8.40492 12.0575 8.28001L11.0575 7.33334ZM18.2441 9.42668C18.4158 9.42599 18.5806 9.35913 18.7041 9.24001L19.6641 8.31334C19.7813 8.19098 19.8474 8.02862 19.8491 7.85926C19.8509 7.68989 19.7881 7.52621 19.6735 7.40146C19.559 7.27671 19.4012 7.20024 19.2323 7.18759C19.0634 7.17494 18.896 7.22705 18.7641 7.33334L17.8041 8.28001C17.68 8.40492 17.6103 8.57389 17.6103 8.75001C17.6103 8.92613 17.68 9.0951 17.8041 9.22001C17.9196 9.34182 18.0767 9.41562 18.2441 9.42668ZM14.9108 16C14.734 16 14.5644 16.0702 14.4394 16.1953C14.3144 16.3203 14.2441 16.4899 14.2441 16.6667V18C14.2441 18.1768 14.3144 18.3464 14.4394 18.4714C14.5644 18.5964 14.734 18.6667 14.9108 18.6667C15.0876 18.6667 15.2572 18.5964 15.3822 18.4714C15.5072 18.3464 15.5775 18.1768 15.5775 18V16.6667C15.5775 16.4899 15.5072 16.3203 15.3822 16.1953C15.2572 16.0702 15.0876 16 14.9108 16ZM18.7308 14.76C18.6035 14.6371 18.4326 14.5698 18.2557 14.573C18.0788 14.5761 17.9104 14.6494 17.7875 14.7767C17.6646 14.904 17.5973 15.0749 17.6004 15.2518C17.6036 15.4287 17.6768 15.5971 17.8041 15.72L18.7641 16.6667C18.8877 16.7858 19.0525 16.8527 19.2241 16.8533C19.3135 16.8539 19.402 16.8364 19.4844 16.8021C19.5669 16.7677 19.6416 16.7171 19.7041 16.6533C19.7666 16.5914 19.8162 16.5176 19.8501 16.4364C19.8839 16.3552 19.9013 16.268 19.9013 16.18C19.9013 16.092 19.8839 16.0049 19.8501 15.9236C19.8162 15.8424 19.7666 15.7687 19.7041 15.7067L18.7308 14.76ZM11.0908 14.76L10.1308 15.6867C10.0683 15.7487 10.0187 15.8224 9.98488 15.9036C9.95103 15.9849 9.93361 16.072 9.93361 16.16C9.93361 16.248 9.95103 16.3352 9.98488 16.4164C10.0187 16.4976 10.0683 16.5714 10.1308 16.6333C10.1933 16.6971 10.268 16.7477 10.3505 16.7821C10.433 16.8164 10.5215 16.8339 10.6108 16.8333C10.7752 16.8347 10.9342 16.7754 11.0575 16.6667L12.0175 15.74C12.1448 15.6171 12.2181 15.4487 12.2212 15.2718C12.2243 15.0949 12.157 14.924 12.0341 14.7967C11.9113 14.6694 11.7428 14.5961 11.5659 14.593C11.389 14.5898 11.2181 14.6571 11.0908 14.78V14.76Z" fill="#E0FF4F"/>
<path d="M29.4405 7.29545V17H27.9763V7.29545H29.4405ZM39.4057 7.29545V17H38.06L33.1271 9.8827H33.0371V17H31.5729V7.29545H32.9281L37.8657 14.4222H37.9557V7.29545H39.4057ZM45.073 17V7.29545H48.5321C49.2872 7.29545 49.9126 7.43287 50.4086 7.70771C50.9046 7.98254 51.2758 8.35847 51.5222 8.83548C51.7686 9.30934 51.8918 9.84321 51.8918 10.4371C51.8918 11.0342 51.767 11.5712 51.5174 12.0482C51.271 12.5221 50.8983 12.898 50.3991 13.176C49.9032 13.4508 49.2793 13.5882 48.5274 13.5882H46.1487V12.3467H48.3947C48.8717 12.3467 49.2587 12.2646 49.5557 12.1003C49.8526 11.9329 50.0706 11.7055 50.2096 11.418C50.3486 11.1305 50.4181 10.8036 50.4181 10.4371C50.4181 10.0707 50.3486 9.74528 50.2096 9.46097C50.0706 9.17666 49.851 8.95395 49.5509 8.79284C49.254 8.63172 48.8623 8.55117 48.3758 8.55117H46.5372V17H45.073ZM53.6083 17V7.29545H57.0675C57.8193 7.29545 58.4432 7.42497 58.9392 7.68402C59.4383 7.94306 59.8111 8.30161 60.0575 8.75967C60.3039 9.21457 60.4271 9.74055 60.4271 10.3376C60.4271 10.9315 60.3023 11.4543 60.0527 11.9061C59.8063 12.3546 59.4336 12.7037 58.9344 12.9533C58.4385 13.2028 57.8146 13.3276 57.0627 13.3276H54.4423V12.0672H56.93C57.4039 12.0672 57.7893 11.9993 58.0862 11.8634C58.3864 11.7276 58.6059 11.5301 58.7449 11.2711C58.8839 11.0121 58.9534 10.7009 58.9534 10.3376C58.9534 9.97115 58.8823 9.65367 58.7402 9.38515C58.6012 9.11664 58.3816 8.9113 58.0815 8.76914C57.7846 8.62383 57.3944 8.55117 56.9111 8.55117H55.0725V17H53.6083ZM58.399 12.6216L60.7967 17H59.1287L56.7784 12.6216H58.399ZM70.6387 12.1477C70.6387 13.1839 70.4491 14.0747 70.07 14.8203C69.6909 15.5626 69.1713 16.1344 68.5111 16.5356C67.854 16.9337 67.1069 17.1327 66.2697 17.1327C65.4294 17.1327 64.6791 16.9337 64.0189 16.5356C63.3618 16.1344 62.8437 15.5611 62.4647 14.8155C62.0856 14.07 61.896 13.1807 61.896 12.1477C61.896 11.1116 62.0856 10.2223 62.4647 9.47992C62.8437 8.73439 63.3618 8.16261 64.0189 7.76457C64.6791 7.36337 65.4294 7.16277 66.2697 7.16277C67.1069 7.16277 67.854 7.36337 68.5111 7.76457C69.1713 8.16261 69.6909 8.73439 70.07 9.47992C70.4491 10.2223 70.6387 11.1116 70.6387 12.1477ZM69.1887 12.1477C69.1887 11.358 69.0607 10.693 68.8048 10.1528C68.5521 9.60945 68.2046 9.19877 67.7624 8.92078C67.3233 8.63962 66.8257 8.49905 66.2697 8.49905C65.7106 8.49905 65.2114 8.63962 64.7723 8.92078C64.3332 9.19877 63.9857 9.60945 63.7299 10.1528C63.4771 10.693 63.3508 11.358 63.3508 12.1477C63.3508 12.9375 63.4771 13.604 63.7299 14.1474C63.9857 14.6876 64.3332 15.0983 64.7723 15.3794C65.2114 15.6574 65.7106 15.7964 66.2697 15.7964C66.8257 15.7964 67.3233 15.6574 67.7624 15.3794C68.2046 15.0983 68.5521 14.6876 68.8048 14.1474C69.0607 13.604 69.1887 12.9375 69.1887 12.1477ZM79.0318 10.3613C78.9402 10.0738 78.817 9.81636 78.6622 9.58891C78.5106 9.3583 78.3289 9.16244 78.1173 9.00133C77.9056 8.83706 77.6639 8.71228 77.3923 8.62699C77.1238 8.54169 76.8284 8.49905 76.5062 8.49905C75.9597 8.49905 75.4668 8.63962 75.0277 8.92078C74.5886 9.20193 74.2411 9.61418 73.9853 10.1575C73.7325 10.6977 73.6062 11.3595 73.6062 12.143C73.6062 12.9296 73.7341 13.5946 73.99 14.1379C74.2459 14.6813 74.5965 15.0935 75.042 15.3747C75.4874 15.6558 75.9944 15.7964 76.563 15.7964C77.0906 15.7964 77.5502 15.689 77.9419 15.4742C78.3368 15.2594 78.6417 14.9561 78.8565 14.5644C79.0745 14.1695 79.1834 13.7051 79.1834 13.1713L79.5625 13.2423H76.7857V12.034H80.6003V13.1381C80.6003 13.9531 80.4265 14.6607 80.079 15.261C79.7347 15.858 79.2577 16.3192 78.648 16.6446C78.0415 16.97 77.3465 17.1327 76.563 17.1327C75.6848 17.1327 74.914 16.9305 74.2506 16.5261C73.5904 16.1218 73.0755 15.5484 72.7058 14.8061C72.3362 14.0605 72.1514 13.176 72.1514 12.1525C72.1514 11.3785 72.2588 10.6835 72.4737 10.0675C72.6885 9.45149 72.9902 8.92867 73.3787 8.49905C73.7704 8.06626 74.2301 7.73614 74.7576 7.50869C75.2884 7.27808 75.868 7.16277 76.4967 7.16277C77.0211 7.16277 77.5092 7.24017 77.9609 7.39496C78.4158 7.54976 78.8202 7.76931 79.174 8.05362C79.5309 8.33793 79.8263 8.67595 80.0601 9.06767C80.2938 9.45623 80.4518 9.88744 80.5339 10.3613H79.0318ZM82.459 17V7.29545H85.9181C86.67 7.29545 87.2939 7.42497 87.7898 7.68402C88.289 7.94306 88.6617 8.30161 88.9081 8.75967C89.1545 9.21457 89.2777 9.74055 89.2777 10.3376C89.2777 10.9315 89.153 11.4543 88.9034 11.9061C88.657 12.3546 88.2842 12.7037 87.7851 12.9533C87.2891 13.2028 86.6652 13.3276 85.9134 13.3276H83.2929V12.0672H85.7807C86.2545 12.0672 86.6399 11.9993 86.9369 11.8634C87.237 11.7276 87.4566 11.5301 87.5956 11.2711C87.7345 11.0121 87.804 10.7009 87.804 10.3376C87.804 9.97115 87.733 9.65367 87.5908 9.38515C87.4518 9.11664 87.2323 8.9113 86.9322 8.76914C86.6352 8.62383 86.2451 8.55117 85.7617 8.55117H83.9232V17H82.459ZM87.2496 12.6216L89.6473 17H87.9794L85.6291 12.6216H87.2496ZM91.0594 17V7.29545H97.1437V8.55591H92.5236V11.5128H96.8262V12.7685H92.5236V15.7395H97.2006V17H91.0594ZM104.393 9.84479C104.342 9.39621 104.133 9.04872 103.767 8.80231C103.401 8.55275 102.939 8.42797 102.383 8.42797C101.985 8.42797 101.641 8.49115 101.35 8.61751C101.06 8.74071 100.834 8.9113 100.673 9.12927C100.515 9.34409 100.436 9.58891 100.436 9.86375C100.436 10.0944 100.49 10.2934 100.597 10.4608C100.708 10.6282 100.851 10.7688 101.028 10.8825C101.208 10.9931 101.401 11.0863 101.606 11.1621C101.812 11.2348 102.009 11.2948 102.199 11.3422L103.146 11.5886C103.456 11.6644 103.773 11.7671 104.099 11.8966C104.424 12.0261 104.726 12.1967 105.004 12.4083C105.282 12.62 105.506 12.8822 105.677 13.1949C105.85 13.5077 105.937 13.882 105.937 14.318C105.937 14.8677 105.795 15.3557 105.511 15.7822C105.23 16.2087 104.821 16.5451 104.284 16.7915C103.75 17.0379 103.104 17.1611 102.345 17.1611C101.619 17.1611 100.99 17.0458 100.46 16.8152C99.9288 16.5846 99.5134 16.2576 99.2133 15.8343C98.9132 15.4078 98.7473 14.9024 98.7157 14.318H100.185C100.213 14.6686 100.327 14.9608 100.526 15.1946C100.728 15.4252 100.986 15.5974 101.298 15.7111C101.614 15.8217 101.96 15.877 102.336 15.877C102.75 15.877 103.118 15.8122 103.44 15.6827C103.765 15.55 104.021 15.3668 104.208 15.133C104.394 14.8961 104.487 14.6197 104.487 14.3038C104.487 14.0163 104.405 13.7809 104.241 13.5977C104.08 13.4145 103.86 13.2629 103.582 13.1428C103.307 13.0228 102.996 12.917 102.649 12.8253L101.502 12.5126C100.725 12.3009 100.109 11.9898 99.654 11.5791C99.2022 11.1684 98.9764 10.6251 98.9764 9.94904C98.9764 9.38989 99.128 8.90182 99.4313 8.48483C99.7345 8.06784 100.145 7.74404 100.663 7.51343C101.181 7.27966 101.766 7.16277 102.417 7.16277C103.074 7.16277 103.653 7.27808 104.156 7.50869C104.661 7.7393 105.059 8.05678 105.35 8.46114C105.64 8.86233 105.792 9.32355 105.805 9.84479H104.393ZM112.98 9.84479C112.929 9.39621 112.721 9.04872 112.354 8.80231C111.988 8.55275 111.527 8.42797 110.971 8.42797C110.573 8.42797 110.228 8.49115 109.938 8.61751C109.647 8.74071 109.421 8.9113 109.26 9.12927C109.102 9.34409 109.023 9.58891 109.023 9.86375C109.023 10.0944 109.077 10.2934 109.184 10.4608C109.295 10.6282 109.439 10.7688 109.616 10.8825C109.796 10.9931 109.988 11.0863 110.194 11.1621C110.399 11.2348 110.596 11.2948 110.786 11.3422L111.734 11.5886C112.043 11.6644 112.361 11.7671 112.686 11.8966C113.012 12.0261 113.313 12.1967 113.591 12.4083C113.869 12.62 114.094 12.8822 114.264 13.1949C114.438 13.5077 114.525 13.882 114.525 14.318C114.525 14.8677 114.383 15.3557 114.098 15.7822C113.817 16.2087 113.408 16.5451 112.871 16.7915C112.337 17.0379 111.691 17.1611 110.933 17.1611C110.206 17.1611 109.578 17.0458 109.047 16.8152C108.516 16.5846 108.101 16.2576 107.801 15.8343C107.501 15.4078 107.335 14.9024 107.303 14.318H108.772C108.801 14.6686 108.914 14.9608 109.113 15.1946C109.315 15.4252 109.573 15.5974 109.886 15.7111C110.202 15.8217 110.547 15.877 110.923 15.877C111.337 15.877 111.705 15.8122 112.028 15.6827C112.353 15.55 112.609 15.3668 112.795 15.133C112.982 14.8961 113.075 14.6197 113.075 14.3038C113.075 14.0163 112.993 13.7809 112.828 13.5977C112.667 13.4145 112.448 13.2629 112.17 13.1428C111.895 13.0228 111.584 12.917 111.236 12.8253L110.089 12.5126C109.312 12.3009 108.696 11.9898 108.241 11.5791C107.79 11.1684 107.564 10.6251 107.564 9.94904C107.564 9.38989 107.715 8.90182 108.019 8.48483C108.322 8.06784 108.733 7.74404 109.251 7.51343C109.769 7.27966 110.353 7.16277 111.004 7.16277C111.661 7.16277 112.241 7.27808 112.743 7.50869C113.248 7.7393 113.647 8.05678 113.937 8.46114C114.228 8.86233 114.379 9.32355 114.392 9.84479H112.98Z" fill="#E0FF4F"/>
</svg>
