<svg width="132" height="32" viewBox="0 0 132 32" fill="none" xmlns="http://www.w3.org/2000/svg">
<rect width="132" height="32" rx="12" fill="#01AF3F" fill-opacity="0.24"/>
<circle cx="20" cy="16" r="4" fill="#01AF3F"/>
<path d="M39.165 21.6875C35.915 21.6875 33.8838 19.4531 33.8838 15.8672V15.8516C33.8838 12.2734 35.9228 10.0391 39.165 10.0391C42.415 10.0391 44.4463 12.2812 44.4463 15.8516V15.8672C44.4463 19.4453 42.4228 21.6875 39.165 21.6875ZM39.165 20.1406C41.3291 20.1406 42.6572 18.4688 42.6572 15.8672V15.8516C42.6572 13.2344 41.3056 11.5859 39.165 11.5859C37.0322 11.5859 35.665 13.2266 35.665 15.8516V15.8672C35.665 18.4922 37.0244 20.1406 39.165 20.1406ZM46.107 24.2344V13.2812H47.7945V14.6953H47.8336C48.3258 13.7188 49.232 13.125 50.4039 13.125C52.4976 13.125 53.8414 14.7656 53.8414 17.3906V17.3984C53.8414 20.0156 52.4898 21.6641 50.4273 21.6641C49.2633 21.6641 48.3179 21.0703 47.8336 20.1172H47.7945V24.2344H46.107ZM49.9664 20.2109C51.2945 20.2109 52.1226 19.1328 52.1226 17.3984V17.3906C52.1226 15.6406 51.2867 14.5703 49.9664 14.5703C48.6851 14.5703 47.7867 15.6797 47.7867 17.3906V17.3984C47.7867 19.1016 48.6929 20.2109 49.9664 20.2109ZM58.8537 21.6641C56.4396 21.6641 54.9787 20.0156 54.9787 17.4219V17.4141C54.9787 14.8438 56.4631 13.125 58.7678 13.125C61.0724 13.125 62.4865 14.7812 62.4865 17.25V17.8203H56.6662C56.6974 19.375 57.549 20.2812 58.8928 20.2812C59.8928 20.2812 60.5568 19.7656 60.7678 19.1484L60.7912 19.0859H62.3928L62.3771 19.1719C62.1115 20.4766 60.8459 21.6641 58.8537 21.6641ZM58.7756 14.5078C57.6818 14.5078 56.8381 15.25 56.6896 16.625H60.8146C60.674 15.2031 59.8771 14.5078 58.7756 14.5078ZM63.991 21.5V13.2812H65.6785V14.6875H65.7176C65.9832 13.7266 66.6707 13.125 67.6082 13.125C67.8504 13.125 68.0613 13.1641 68.1941 13.1875V14.7578C68.0613 14.7031 67.7644 14.6641 67.4363 14.6641C66.3504 14.6641 65.6785 15.375 65.6785 16.6016V21.5H63.991ZM71.6752 21.6484C70.0346 21.6484 68.933 20.6406 68.933 19.1641V19.1484C68.933 17.7188 70.0424 16.8438 71.9877 16.7266L74.2221 16.5938V15.9766C74.2221 15.0703 73.6361 14.5234 72.5893 14.5234C71.6127 14.5234 71.0111 14.9844 70.8705 15.6406L70.8549 15.7109H69.2611L69.2689 15.625C69.3861 14.2109 70.6127 13.125 72.6361 13.125C74.6439 13.125 75.9174 14.1875 75.9174 15.8359V21.5H74.2221V20.2031H74.1908C73.7143 21.0859 72.7611 21.6484 71.6752 21.6484ZM70.6361 19.125C70.6361 19.8438 71.2299 20.2969 72.1361 20.2969C73.3236 20.2969 74.2221 19.4922 74.2221 18.4219V17.7812L72.2143 17.9062C71.1986 17.9688 70.6361 18.4141 70.6361 19.1094V19.125ZM80.6328 21.6641C79.0078 21.6641 78.2266 20.9766 78.2266 19.3359V14.625H77.0469V13.2812H78.2266V11.1406H79.9531V13.2812H81.4922V14.625H79.9531V19.2344C79.9531 20.0703 80.3281 20.3203 81.0391 20.3203C81.2188 20.3203 81.3672 20.3047 81.4922 20.2891V21.5938C81.2969 21.625 80.9766 21.6641 80.6328 21.6641ZM83.9967 12.0156C83.4498 12.0156 83.0123 11.5781 83.0123 11.0469C83.0123 10.5078 83.4498 10.0703 83.9967 10.0703C84.5514 10.0703 84.9811 10.5078 84.9811 11.0469C84.9811 11.5781 84.5514 12.0156 83.9967 12.0156ZM83.1529 21.5V13.2812H84.8404V21.5H83.1529ZM90.3059 21.6641C87.9465 21.6641 86.4074 20.0312 86.4074 17.3906V17.375C86.4074 14.75 87.9621 13.125 90.2981 13.125C92.6418 13.125 94.2043 14.7422 94.2043 17.375V17.3906C94.2043 20.0391 92.6574 21.6641 90.3059 21.6641ZM90.3137 20.25C91.634 20.25 92.4778 19.2031 92.4778 17.3906V17.375C92.4778 15.5781 91.6184 14.5391 90.2981 14.5391C89.0012 14.5391 88.134 15.5781 88.134 17.375V17.3906C88.134 19.2109 88.9934 20.25 90.3137 20.25ZM95.701 21.5V13.2812H97.3885V14.5234H97.4276C97.8573 13.6875 98.701 13.125 99.9432 13.125C101.748 13.125 102.787 14.2891 102.787 16.1797V21.5H101.092V16.5C101.092 15.2656 100.514 14.5703 99.3416 14.5703C98.1541 14.5703 97.3885 15.4297 97.3885 16.7109V21.5H95.701ZM107.026 21.6484C105.385 21.6484 104.284 20.6406 104.284 19.1641V19.1484C104.284 17.7188 105.393 16.8438 107.338 16.7266L109.573 16.5938V15.9766C109.573 15.0703 108.987 14.5234 107.94 14.5234C106.963 14.5234 106.362 14.9844 106.221 15.6406L106.205 15.7109H104.612L104.62 15.625C104.737 14.2109 105.963 13.125 107.987 13.125C109.995 13.125 111.268 14.1875 111.268 15.8359V21.5H109.573V20.2031H109.541C109.065 21.0859 108.112 21.6484 107.026 21.6484ZM105.987 19.125C105.987 19.8438 106.58 20.2969 107.487 20.2969C108.674 20.2969 109.573 19.4922 109.573 18.4219V17.7812L107.565 17.9062C106.549 17.9688 105.987 18.4141 105.987 19.1094V19.125ZM113.163 21.5V10.2266H114.851V21.5H113.163Z" fill="#01AF3F"/>
</svg>
