<svg width="125" height="32" viewBox="0 0 125 32" fill="none" xmlns="http://www.w3.org/2000/svg">
<rect width="125" height="32" rx="12" fill="#0D1116"/>
<path d="M31.5 16C31.5 16.4596 31.4095 16.9148 31.2336 17.3394C31.0577 17.764 30.7999 18.1499 30.4749 18.4749C30.1499 18.7999 29.764 19.0577 29.3394 19.2336C28.9148 19.4095 28.4596 19.5 28 19.5C27.5404 19.5 27.0852 19.4095 26.6606 19.2336C26.236 19.0577 25.8501 18.7999 25.5251 18.4749C25.2001 18.1499 24.9423 17.764 24.7664 17.3394C24.5905 16.9148 24.5 16.4596 24.5 16C24.5 15.0717 24.8687 14.1815 25.5251 13.5251C26.1815 12.8687 27.0717 12.5 28 12.5C28.9283 12.5 29.8185 12.8687 30.4749 13.5251C31.1313 14.1815 31.5 15.0717 31.5 16Z" stroke="white" stroke-width="1.5" stroke-linecap="round" stroke-linejoin="round"/>
<path d="M37.011 18.097C37.533 17.956 37.794 17.885 37.897 17.751C38 17.616 38 17.4 38 16.967V15.033C38 14.6 38 14.383 37.897 14.249C37.794 14.115 37.533 14.044 37.011 13.904C35.061 13.378 33.84 11.339 34.343 9.40096C34.482 8.86796 34.551 8.60096 34.485 8.44496C34.419 8.28896 34.229 8.18096 33.85 7.96596L32.125 6.98596C31.753 6.77596 31.567 6.66996 31.4 6.69196C31.233 6.71396 31.044 6.90196 30.667 7.27896C29.208 8.73396 26.794 8.73396 25.334 7.27896C24.957 6.90296 24.769 6.71496 24.602 6.69196C24.435 6.66996 24.249 6.77496 23.877 6.98696L22.152 7.96596C21.772 8.18096 21.582 8.28896 21.517 8.44596C21.451 8.60096 21.52 8.86796 21.658 9.40096C22.161 11.339 20.94 13.378 18.989 13.904C18.467 14.044 18.206 14.114 18.103 14.249C18 14.384 18 14.6 18 15.033V16.967C18 17.4 18 17.617 18.103 17.751C18.206 17.885 18.467 17.956 18.989 18.097C20.939 18.623 22.16 20.662 21.657 22.599C21.518 23.132 21.449 23.399 21.515 23.555C21.581 23.711 21.771 23.819 22.15 24.035L23.875 25.013C24.247 25.225 24.433 25.33 24.6 25.308C24.767 25.286 24.956 25.098 25.333 24.721C26.793 23.264 29.209 23.264 30.669 24.721C31.046 25.097 31.234 25.285 31.401 25.308C31.568 25.33 31.754 25.225 32.127 25.013L33.851 24.034C34.231 23.819 34.421 23.711 34.486 23.554C34.551 23.397 34.483 23.132 34.345 22.599C33.841 20.662 35.061 18.623 37.011 18.097Z" stroke="white" stroke-width="1.5" stroke-linecap="round" stroke-linejoin="round"/>
<path d="M52.799 21.5L49.7599 10.2266H51.5802L53.6818 19.0625H53.7131L56.0959 10.2266H57.7521L60.1349 19.0625H60.174L62.2756 10.2266H64.0959L61.049 21.5H59.3693L56.9474 13H56.9084L54.4787 21.5H52.799ZM66.3894 12.0156C65.8426 12.0156 65.4051 11.5781 65.4051 11.0469C65.4051 10.5078 65.8426 10.0703 66.3894 10.0703C66.9441 10.0703 67.3738 10.5078 67.3738 11.0469C67.3738 11.5781 66.9441 12.0156 66.3894 12.0156ZM65.5457 21.5V13.2812H67.2332V21.5H65.5457ZM72.2377 21.6641C70.1439 21.6641 68.8002 20.0078 68.8002 17.3906V17.3828C68.8002 14.7656 70.1596 13.125 72.2221 13.125C73.3861 13.125 74.3236 13.7109 74.8158 14.6797H74.8471V10.2266H76.5424V21.5H74.8471V20.1094H74.8158C74.3236 21.0703 73.4174 21.6641 72.2377 21.6641ZM72.683 20.2109C73.9564 20.2109 74.8549 19.1016 74.8549 17.3906V17.3828C74.8549 15.6797 73.9486 14.5703 72.683 14.5703C71.3549 14.5703 70.5268 15.6484 70.5268 17.3828V17.3906C70.5268 19.1406 71.3471 20.2109 72.683 20.2109ZM82.0703 24.3984C79.9609 24.3984 78.625 23.4219 78.375 22.1641L78.3672 22.0938H80.0391L80.0703 22.1562C80.2969 22.6797 81.0078 23.0391 82.0625 23.0391C83.4062 23.0391 84.1484 22.3203 84.1484 21.1719V20.0469H84.1094C83.6406 20.9375 82.7031 21.5078 81.5234 21.5078C79.4609 21.5078 78.1016 19.8906 78.1016 17.3281V17.3203C78.1016 14.7422 79.4766 13.125 81.5625 13.125C82.7188 13.125 83.625 13.75 84.1094 14.6797H84.1484V13.2812H85.8438V21.2734C85.8438 23.1484 84.3906 24.3984 82.0703 24.3984ZM82 20.1328C83.2891 20.1328 84.1484 19.0469 84.1484 17.3516V17.3438C84.1484 15.6562 83.2812 14.5703 82 14.5703C80.6641 14.5703 79.8281 15.6484 79.8281 17.3438V17.3516C79.8281 19.0703 80.6641 20.1328 82 20.1328ZM91.2154 21.6641C88.8014 21.6641 87.3404 20.0156 87.3404 17.4219V17.4141C87.3404 14.8438 88.8248 13.125 91.1295 13.125C93.4342 13.125 94.8483 14.7812 94.8483 17.25V17.8203H89.0279C89.0592 19.375 89.9108 20.2812 91.2545 20.2812C92.2545 20.2812 92.9186 19.7656 93.1295 19.1484L93.1529 19.0859H94.7545L94.7389 19.1719C94.4733 20.4766 93.2076 21.6641 91.2154 21.6641ZM91.1373 14.5078C90.0436 14.5078 89.1998 15.25 89.0514 16.625H93.1764C93.0358 15.2031 92.2389 14.5078 91.1373 14.5078ZM99.2356 21.6641C97.6106 21.6641 96.8293 20.9766 96.8293 19.3359V14.625H95.6496V13.2812H96.8293V11.1406H98.5559V13.2812H100.095V14.625H98.5559V19.2344C98.5559 20.0703 98.9309 20.3203 99.6418 20.3203C99.8215 20.3203 99.9699 20.3047 100.095 20.2891V21.5938C99.8996 21.625 99.5793 21.6641 99.2356 21.6641ZM104.764 21.6641C102.709 21.6641 101.506 20.6484 101.334 19.1484L101.326 19.0781H102.998L103.014 19.1562C103.17 19.9141 103.732 20.3594 104.771 20.3594C105.787 20.3594 106.396 19.9375 106.396 19.2734V19.2656C106.396 18.7344 106.099 18.4297 105.217 18.2188L103.873 17.9141C102.31 17.5547 101.537 16.8047 101.537 15.6094V15.6016C101.537 14.1328 102.818 13.125 104.709 13.125C106.654 13.125 107.826 14.2109 107.912 15.6094L107.92 15.7031H106.334L106.326 15.6484C106.224 14.9297 105.662 14.4297 104.709 14.4297C103.803 14.4297 103.232 14.8594 103.232 15.5156V15.5234C103.232 16.0312 103.568 16.375 104.451 16.5859L105.787 16.8906C107.467 17.2812 108.107 17.9453 108.107 19.125V19.1328C108.107 20.6328 106.701 21.6641 104.764 21.6641Z" fill="white"/>
</svg>
