<svg width="20" height="20" viewBox="0 0 20 20" fill="none" xmlns="http://www.w3.org/2000/svg">
<g clip-path="url(#clip0_121_2589)">
<rect y="11.2109" width="2.5" height="2.5" fill="#FF6601"/>
<rect x="17.4609" y="11.2109" width="2.5" height="2.5" fill="#FF6601"/>
<rect x="7.5" y="1.25" width="2.5" height="2.5" fill="#E0FF4F"/>
<rect x="10" y="1.25" width="2.5" height="2.5" fill="#E0FF4F"/>
<rect x="5" y="3.75" width="2.5" height="2.5" fill="#E0FF4F"/>
<rect x="7.5" y="3.75" width="2.5" height="2.5" fill="#E0FF4F"/>
<rect x="10" y="3.75" width="2.5" height="2.5" fill="#E0FF4F"/>
<rect x="12.5" y="3.75" width="2.5" height="2.5" fill="#E0FF4F"/>
<rect x="2.5" y="6.25" width="2.5" height="2.5" fill="#E0FF4F"/>
<rect x="5" y="6.25" width="2.5" height="2.5" fill="#E0FF4F"/>
<rect x="7.5" y="6.25" width="2.5" height="2.5" fill="#E0FF4F"/>
<rect x="10" y="6.25" width="2.5" height="2.5" fill="#E0FF4F"/>
<rect x="12.5" y="6.25" width="2.5" height="2.5" fill="#E0FF4F"/>
<rect x="15" y="6.25" width="2.5" height="2.5" fill="#E0FF4F"/>
<rect x="5" y="8.75" width="2.5" height="2.5" fill="#E0FF4F"/>
<rect x="7.5" y="8.75" width="2.5" height="2.5" fill="#E0FF4F"/>
<rect x="10" y="8.75" width="2.5" height="2.5" fill="#E0FF4F"/>
<rect x="12.5" y="8.75" width="2.5" height="2.5" fill="#E0FF4F"/>
<rect x="7.5" y="11.25" width="2.5" height="2.5" fill="#E0FF4F"/>
<rect x="10" y="11.25" width="2.5" height="2.5" fill="#E0FF4F"/>
<rect x="2.5" y="16.25" width="2.5" height="2.5" fill="#8081F9"/>
<rect x="5" y="13.75" width="2.5" height="2.5" fill="#8081F9"/>
<rect x="5" y="16.25" width="2.5" height="2.5" fill="#8081F9"/>
<rect x="12.4609" y="13.75" width="2.5" height="2.5" fill="#8081F9"/>
<rect x="12.4609" y="16.25" width="2.5" height="2.5" fill="#8081F9"/>
<rect x="14.9609" y="16.25" width="2.5" height="2.5" fill="#8081F9"/>
</g>
<defs>
<clipPath id="clip0_121_2589">
<rect width="20" height="20" fill="white"/>
</clipPath>
</defs>
</svg>
