<svg width="24" height="24" viewBox="0 0 24 24" fill="none" xmlns="http://www.w3.org/2000/svg">
<path d="M9 21C9.796 21.622 10.848 22 12 22C13.152 22 14.204 21.622 15 21M2.53 14.394C2.317 15.747 3.268 16.686 4.432 17.154C8.895 18.949 15.105 18.949 19.568 17.154C20.732 16.686 21.683 15.747 21.47 14.394C21.34 13.562 20.693 12.87 20.214 12.194C19.587 11.297 19.525 10.32 19.524 9.279C19.525 5.26 16.157 2 12 2C7.843 2 4.475 5.26 4.475 9.28C4.475 10.32 4.413 11.298 3.785 12.194C3.307 12.87 2.661 13.562 2.53 14.394Z" stroke="white" stroke-width="1.5" stroke-linecap="round" stroke-linejoin="round"/>
</svg>
