<svg width="16" height="17" viewBox="0 0 16 17" fill="none" xmlns="http://www.w3.org/2000/svg">
<rect width="16" height="16" transform="translate(0 0.5)" fill="#161A1D"/>
<path d="M11.0398 4.12667L10.0732 5.09333C10.6606 5.4471 11.1466 5.94662 11.4842 6.54348C11.8217 7.14035 11.9994 7.8143 11.9998 8.5C11.9998 9.56087 11.5784 10.5783 10.8283 11.3284C10.0781 12.0786 9.06071 12.5 7.99984 12.5C6.93897 12.5 5.92156 12.0786 5.17141 11.3284C4.42127 10.5783 3.99984 9.56087 3.99984 8.5C3.99984 7.05333 4.77317 5.79333 5.91984 5.08667L4.95984 4.12667C4.25173 4.61515 3.67299 5.26846 3.27348 6.03032C2.87397 6.79218 2.66566 7.63975 2.66651 8.5C2.66651 9.91449 3.22841 11.271 4.2286 12.2712C5.2288 13.2714 6.58535 13.8333 7.99984 13.8333C9.41433 13.8333 10.7709 13.2714 11.7711 12.2712C12.7713 11.271 13.3332 9.91449 13.3332 8.5C13.3332 6.68667 12.4265 5.08667 11.0398 4.12667ZM8.66651 2.5H7.33317V9.16667H8.66651" fill="white"/>
</svg>
