<svg width="13" height="13" viewBox="0 0 13 13" fill="none" xmlns="http://www.w3.org/2000/svg">
<path fill-rule="evenodd" clip-rule="evenodd" d="M5.5 1C4.90905 1 4.32389 1.1164 3.77792 1.34255C3.23196 1.56869 2.73588 1.90016 2.31802 2.31802C1.90016 2.73589 1.56869 3.23196 1.34254 3.77793C1.1164 4.32389 1 4.90906 1 5.5C1 6.09095 1.1164 6.67611 1.34254 7.22208C1.56869 7.76804 1.90016 8.26412 2.31802 8.68198C2.73588 9.09985 3.23196 9.43132 3.77792 9.65746C4.32389 9.88361 4.90905 10 5.5 10C6.69347 10 7.83807 9.5259 8.68198 8.68198C9.52589 7.83807 10 6.69348 10 5.5C10 4.30653 9.52589 3.16194 8.68198 2.31802C7.83807 1.47411 6.69347 1 5.5 1ZM8.00294e-08 5.5C0.000180997 4.61677 0.213069 3.74658 0.620658 2.96302C1.02825 2.17946 1.61855 1.50558 2.34163 0.998387C3.06471 0.491193 3.89931 0.165599 4.77483 0.0491463C5.65035 -0.0673068 6.54104 0.0288056 7.37156 0.329354C8.20208 0.629903 8.94801 1.12605 9.54624 1.77582C10.1445 2.4256 10.5774 3.20989 10.8085 4.06236C11.0395 4.91484 11.0619 5.81042 10.8736 6.67336C10.6854 7.53629 10.2921 8.3412 9.727 9.02L12.854 12.146L12.146 12.854L9.02 9.727C8.21679 10.396 7.23956 10.8223 6.2028 10.9559C5.16604 11.0894 4.11267 10.9248 3.16612 10.4812C2.21957 10.0376 1.41903 9.33349 0.858287 8.45128C0.297544 7.56907 -0.00017821 6.54534 8.00294e-08 5.5Z" fill="#6F707B"/>
</svg>
